# xmcd
#
# Track frame offsets: 
#        150
#        10907
#        25747
#        35927
#        48603
#        61978
#        75505
#        86933
#        95938
#        111092
#        122510
#        139774
#        152903
#        162159
#        175217
#        187312
#        197285
#        206382
#        217444
#
# Disc length: 3092 seconds
#
# Revision: 0
# Processed by: cddbd v1.5.2PL0 Copyright (c) Steve Scherf et al.
# Submitted via: ExactAudioCopy v0.99pb5
#
DISCID=160c1213
DTITLE=Геннадий Перевалов - Дом на перевале
DYEAR=2001
DGENRE=Chanson
TTITLE0=На Арбате
TTITLE1=Колымская
TTITLE2=Узелок на память
TTITLE3=Мистер Блюз
TTITLE4=Сжимается сердце...
TTITLE5=Мальчишки
TTITLE6=В лепетанье ручейка
TTITLE7=Фигурные конечки
TTITLE8=Посвящение Битлз
TTITLE9=Эй, ты
TTITLE10=Памяти Высоцкого
TTITLE11=Споры
TTITLE12=Памяти Вуди Гатри
TTITLE13=Питер Брейгель
TTITLE14=Пока рука ещё сильна...
TTITLE15=Горы
TTITLE16=Завтра
TTITLE17=Кая и Чипчапдарик
TTITLE18=Поезд шел...
EXTD=
EXTT0=
EXTT1=
EXTT2=
EXTT3=
EXTT4=
EXTT5=
EXTT6=
EXTT7=
EXTT8=
EXTT9=
EXTT10=
EXTT11=
EXTT12=
EXTT13=
EXTT14=
EXTT15=
EXTT16=
EXTT17=
EXTT18=
PLAYORDER=
